<svg xmlns="http://www.w3.org/2000/svg" viewBox="0 0 195.16 934.12"><defs><style>.cls-1{fill:#db2a54;}.cls-default{fill:#FFFFFF;}</style></defs><title>AkabaneHeavyIndustries</title><g id="Akabane" data-name="Akabane"><path class="cls-default" d="M101.25,112.19V228.27l-10-7.77V113.42l-80.52,10,2.25-9,78.27-9.6.12-33.37L46.8,77,41,100.34l-10.63,1.23L47.1,37l10.63-1.23L49.35,68.05l42-5.21L91.24,0l10,7.56s-.07,21.27-.07,30.85V61.65c18.69-2.16,49.94-6.27,49.94-6.27l-2.25,9L101.18,70l.07,33.58,73.16-9.2-2.25,9ZM10.12,194.55V208l66-61.31V133.45Zm106.25-62.94v15.53l37.4,51.29,10.42-1.3Z"/><path class="cls-default" d="M101.26,541.89v17.37l55.59-6.95v64.37l-55.59,6.95v22.89l48.43-5.93-2.25,8.79-46.19,5.72v24.11l78.07-9.6-2.25,8.79S32.35,695.24,11.75,698.84l2.45-8.79,77-9.6V656.54l-51.09,6.13,2.45-8.79L91.25,648v-23.3L39.34,631.2V567l52-6.5-.08-17.41L5.42,553.74,7.87,545l83.38-10.42V510l-43.12,5.31,2.25-9,97.68-12.06-2.25,9-44.55,5.52v24.52l86.85-10.83-2.45,9Zm-10,53.34L61,598.91l2.25-9,28-3.27V569.07l-41.89,5.31v47l41.89-5.31Zm9.9-27.27.11,17.26,31.06-3.68-2.45,8.79-28.72,3.51.11,21,45.57-5.72v-47Z"/><path class="cls-default" d="M0,934.12l2.45-9,88.69-11v-151L23.5,771.45l2.25-9,142.64-17.57-2.25,9-65,7.77.09,151.29,93.91-11.71L192.91,910Z"/><path class="cls-default" d="M86.77,454.15l-10.22,9.4,0-191.69L10.32,280l2.45-9,73.77-9.2Zm90.92-4.91-10,9.2V266.35L108,273.7l2.45-9,67.23-8.17Z"/><polyline class="cls-1" points="53.66 344.89 66.11 333.38 66.11 346.66 59.46 352.84 65.82 361.77 55.4 363.07 52.68 359.12 52.68 359.12 7.87 400.81 7.87 387.33 46.88 351.17 25.44 321.93 25.44 306.4 53.66 344.89"/><polyline class="cls-1" points="144.81 339.38 157.25 327.86 157.25 341.14 150.6 347.32 156.97 356.25 146.54 357.55 143.82 353.61 143.82 353.61 99.01 395.3 99.01 381.81 138.02 345.65 116.59 316.42 116.59 300.88 144.8 339.38"/></g></svg>